<?xml version="1.0" encoding="utf-8"?>
<!-- Generator: Adobe Illustrator 21.1.0, SVG Export Plug-In . SVG Version: 6.00 Build 0)  -->
<svg version="1.1" id="logo" xmlns="http://www.w3.org/2000/svg" xmlns:xlink="http://www.w3.org/1999/xlink" x="0px" y="0px"
	 viewBox="0 0 52 52" style="enable-background:new 0 0 52 52;" xml:space="preserve">
<style type="text/css">
	.st0{fill:none;enable-background:new    ;}
	.st1{fill:#FFFFFF;}
</style>
<path class="st0" d="z"/>
<g>
	<path class="st1" d="M36.8,13.1c0.8,0,1.5,0,2.3,0.1v-3H13.7v10.2C20.5,15.6,28.6,13.1,36.8,13.1L36.8,13.1z"/>
	<path class="st1" d="M31.8,22.3l0.6,7.4l-6,4.9l-4.3-4.9l0,0l0,0c3.3-6.2,9.1-10.7,16-12.5v-2.1l0,0c-0.4,0-0.9,0-1.3,0
		c-8.7,0-17.1,2.9-24,8.3l0,0.1l4.4,0l-3.5,8l5.9,4.8l6.8,5.5l12.7-10.3l-1.7-11.9C35.5,20.3,33.6,21.1,31.8,22.3L31.8,22.3z"/>
</g>
</svg>
