<?xml version="1.0" encoding="utf-8"?>
<!-- Generator: Adobe Illustrator 21.1.0, SVG Export Plug-In . SVG Version: 6.00 Build 0)  -->
<svg version="1.1" id="logo" xmlns="http://www.w3.org/2000/svg" xmlns:xlink="http://www.w3.org/1999/xlink" x="0px" y="0px"
	 viewBox="0 0 160 52" style="enable-background:new 0 0 160 52;" xml:space="preserve">
<style type="text/css">
	.st0{fill:none;enable-background:new    ;}
	.st1{fill:#FFFFFF;}
</style>
<image style="overflow:visible;" width="160" height="52" xlink:href="D5B390B4.png" >
</image>
<path class="st0" d="z"/>
<path id="logo-2" class="st1" d="M68.3,19l-5.2,6.7l-1,5.6h3.5l1-5.6l5.6-6.7C72.2,19,68.3,19,68.3,19z M80.9,19l-1.3,7.5
	c-0.1,0.6-0.3,1.1-0.8,1.5c-0.3,0.3-0.7,0.4-1.1,0.5l-0.5,2.7c0.8,0,1.6-0.1,2.4-0.4c0.6-0.2,1.1-0.5,1.6-0.9c0.5-0.4,0.9-1,1.3-1.6
	c0.3-0.6,0.5-1.2,0.6-1.9l1.3-7.4L80.9,19L80.9,19z M76.9,28.5c-0.4,0-0.7-0.2-0.9-0.5c-0.3-0.4-0.4-1-0.3-1.5L77,19h-3.5l-1.3,7.4
	c-0.1,0.6-0.1,1.3,0,1.9c0.1,0.5,0.2,0.9,0.5,1.3c0.3,0.4,0.6,0.7,1,1c0.5,0.3,1,0.4,1.6,0.5c0.4,0,0.8,0.1,1.1,0.1L76.9,28.5z
	 M115.6,28.5c-0.4,0-0.7-0.2-0.9-0.5c-0.3-0.4-0.4-1-0.3-1.5l1.3-7.5h-3.5l-1.3,7.4c-0.1,0.6-0.1,1.3,0,1.9c0.1,0.5,0.2,0.9,0.5,1.3
	c0.3,0.4,0.6,0.7,1,1c0.5,0.3,1,0.4,1.6,0.5c0.4,0,0.8,0.1,1.1,0.1L115.6,28.5z M119.6,19l-1.3,7.5c-0.1,0.6-0.3,1.1-0.8,1.5
	c-0.3,0.3-0.7,0.4-1.1,0.5l-0.5,2.7c0.8,0,1.6-0.1,2.4-0.4c0.6-0.2,1.1-0.5,1.6-0.9c0.5-0.4,0.9-1,1.3-1.6c0.3-0.6,0.5-1.2,0.6-1.9
	l1.3-7.4L119.6,19L119.6,19z M88.8,24.6l0.9-5.4l0,0h-3.3l-2.1,12h3.3L88.8,24.6z M94,19.1l-1.2,6.6l-2.5-5.3l-0.9,5.4l2.5,5.3h3.3
	l2.1-12C97.3,19.1,94,19.1,94,19.1z M127.5,24.6l0.9-5.4l0,0h-3.3l-2.1,12h3.3L127.5,24.6z M132.7,19.1l-1.2,6.6l-2.5-5.3l-0.9,5.4
	l2.5,5.3h3.3l2.1-12L132.7,19.1L132.7,19.1z M109.1,22.6c0-0.6-0.2-1.3-0.6-1.8c-0.3-0.5-0.8-0.9-1.4-1.2c-0.8-0.3-1.6-0.5-2.4-0.4
	h-5.2l-0.5,2.6h6.6l-0.1,4.6l-2.9,2.4l-2.1-2.4l1.3-3.8h-2.9l-1.5,8.6h5.2c0.7,0,1.4-0.1,2.1-0.3c0.6-0.2,1.2-0.5,1.7-0.9
	c0.6-0.5,1.1-1,1.4-1.7c0.5-1,0.8-2,1-3.1C109.1,24.3,109.1,23.4,109.1,22.6z M65.1,22l-1.3-3h-3.9l2.8,5.9L65.1,22z M46.1,13.4
	c0.8,0,1.5,0,2.3,0.1v-3H22.9v10.2C29.7,15.9,37.8,13.4,46.1,13.4L46.1,13.4z M41.1,22.5l0.6,7.4l-6,4.9l-4.3-4.9l0,0l0,0
	c3.3-6.2,9.1-10.7,16-12.5v-2.1l0,0c-0.4,0-0.9,0-1.3,0c-8.7,0-17.1,2.9-24,8.3l0,0.1l4.4,0l-3.5,8l5.9,4.8l6.8,5.5l12.7-10.3
	l-1.7-11.9C44.7,20.5,42.8,21.4,41.1,22.5L41.1,22.5z"/>
</svg>
